<svg width="256" height="256" viewBox="0 0 256 256" fill="none" xmlns="http://www.w3.org/2000/svg">
<path fill-rule="evenodd" clip-rule="evenodd" d="M128 0C198.692 0 256 57.308 256 128C256 198.692 198.692 256 128 256C57.308 256 0 198.692 0 128C0 57.308 57.308 0 128 0ZM128 25.6C184.404 25.6 230.4 71.596 230.4 128C230.4 184.404 184.404 230.4 128 230.4C71.596 230.4 25.6 184.404 25.6 128C25.6 71.596 71.596 25.6 128 25.6Z" fill="#2C4F7C"/>
<path d="M128 76.8C149.091 76.8 166.4 94.109 166.4 115.2C166.4 136.291 149.091 153.6 128 153.6C106.909 153.6 89.6 136.291 89.6 115.2C89.6 94.109 106.909 76.8 128 76.8Z" fill="#2C4F7C"/>
<path fill-rule="evenodd" clip-rule="evenodd" d="M128 102.4C137.697 102.4 145.6 110.303 145.6 120C145.6 129.697 137.697 137.6 128 137.6C118.303 137.6 110.4 129.697 110.4 120C110.4 110.303 118.303 102.4 128 102.4ZM128 115.2C130.209 115.2 132 116.991 132 119.2C132 121.409 130.209 123.2 128 123.2C125.791 123.2 124 121.409 124 119.2C124 116.991 125.791 115.2 128 115.2Z" fill="white"/>
</svg>
