<?xml version="1.0" encoding="UTF-8"?>
<svg width="32px" height="32px" viewBox="0 0 32 32" version="1.1" xmlns="http://www.w3.org/2000/svg" xmlns:xlink="http://www.w3.org/1999/xlink">
    <title>vite</title>
    <g id="Page-1" stroke="none" stroke-width="1" fill="none" fill-rule="evenodd">
        <g id="vite">
            <path d="M29.8836,6.146 L16.7418,29.6987 C16.3697,30.3815 15.3984,30.3854 15.0223,29.7066 L1.0265,6.14709 C0.6173,5.40438 1.2031,4.50455 2.0367,4.64818 L16.0456,7.30365 C16.1616,7.32872 16.2805,7.32852 16.3964,7.30316 L28.9729,4.64798 C29.8067,4.50405 30.3926,5.40393 29.8836,6.146 Z" id="Path" fill="#41D1FF" fill-rule="nonzero"></path>
            <path d="M22.2644,0.21664 L12.5445,2.3119 C12.3135,2.36306 12.1402,2.55294 12.1099,2.78821 L10.0678,17.6033 C10.0261,17.9168 10.2827,18.1883 10.5979,18.1328 L14.5773,17.4329 C14.9084,17.3733 15.2062,17.6419 15.1644,17.9762 L14.2931,24.3195 C14.2435,24.7085 14.7232,24.9528 14.9957,24.6583 L15.9733,23.6012 L19.5871,18.0434 C19.7841,17.7283 20.2379,17.7551 20.3971,18.0922 L23.3745,24.6583 C23.5337,24.9954 23.9875,25.0222 24.1845,24.7071 L30.8051,13.1866 C30.9681,12.9233 30.7981,12.5831 30.4837,12.5259 L26.6086,11.8471 C26.2723,11.7855 26.1215,11.3776 26.3378,11.1066 L31.7968,3.8673 C32.0131,3.5963 31.8623,3.18842 31.526,3.12677 L22.5322,0.21664 C22.4452,0.19458 22.3514,0.19458 22.2644,0.21664 Z" id="Path" fill="#FFD62E" fill-rule="nonzero"></path>
        </g>
    </g>
</svg>
